<?xml version="1.0" encoding="iso-8859-1"?>
<!-- Generator: Adobe Illustrator 19.0.0, SVG Export Plug-In . SVG Version: 6.00 Build 0)  -->
<svg version="1.1" id="Capa_1" xmlns="http://www.w3.org/2000/svg" xmlns:xlink="http://www.w3.org/1999/xlink" x="0px" y="0px"
	 viewBox="0 0 384 384" style="enable-background:new 0 0 384 384;" xml:space="preserve">
<g>
	<g>
		<path d="M341.333,0H42.667C19.103,0,0,19.103,0,42.667v298.667C0,364.897,19.103,384,42.667,384h298.667
			C364.898,384,384,364.897,384,341.333V42.667C384,19.103,364.898,0,341.333,0z M341.333,341.333H42.667V42.667h298.667V341.333z"
			/>
	</g>
</g>
<g>
	<g>
		<path d="M297.114,78.466C262.076,68.97,227.038,64.148,192,64c-35.095-0.148-70.189,4.636-105.284,14.354
			c-0.757,0.209-1.501,0.461-2.23,0.752c-10.939,4.376-16.26,16.791-11.885,27.73l23.337,58.343
			C102.418,181.378,118.107,192,135.553,192h112.893c17.447,0,33.136-10.622,39.615-26.821l23.28-58.2
			c0.306-0.765,0.568-1.547,0.783-2.343C315.206,93.265,308.486,81.548,297.114,78.466z M248.447,149.333H135.553l-14.197-35.494
			c23.548-4.888,47.022-7.273,70.463-7.174c23.534,0.1,47.098,2.564,70.73,7.41L248.447,149.333z"/>
	</g>
</g>
<g>
	<g>
		<rect x="170.667" y="128" width="42.667" height="42.667"/>
	</g>
</g>
<g>
</g>
<g>
</g>
<g>
</g>
<g>
</g>
<g>
</g>
<g>
</g>
<g>
</g>
<g>
</g>
<g>
</g>
<g>
</g>
<g>
</g>
<g>
</g>
<g>
</g>
<g>
</g>
<g>
</g>
</svg>
